<?xml version="1.0" encoding="UTF-8" standalone="no"?>
<!-- Generator: Adobe Illustrator 25.4.1, SVG Export Plug-In . SVG Version: 6.00 Build 0)  -->

<svg
   version="1.1"
   id="레이어_1"
   x="0px"
   y="0px"
   viewBox="0 0 71.999998 72.000001"
   xml:space="preserve"
   sodipodi:docname="카카오페이증권.svg"
   width="72"
   height="72"
   inkscape:version="1.4.2 (f4327f4, 2025-05-13)"
   xmlns:inkscape="http://www.inkscape.org/namespaces/inkscape"
   xmlns:sodipodi="http://sodipodi.sourceforge.net/DTD/sodipodi-0.dtd"
   xmlns="http://www.w3.org/2000/svg"
   xmlns:svg="http://www.w3.org/2000/svg"><defs
   id="defs6" /><sodipodi:namedview
   id="namedview6"
   pagecolor="#ffffff"
   bordercolor="#000000"
   borderopacity="0.25"
   inkscape:showpageshadow="2"
   inkscape:pageopacity="0.0"
   inkscape:pagecheckerboard="0"
   inkscape:deskcolor="#d1d1d1"
   inkscape:zoom="4.1024825"
   inkscape:cx="43.266486"
   inkscape:cy="63.132506"
   inkscape:window-width="1440"
   inkscape:window-height="830"
   inkscape:window-x="-6"
   inkscape:window-y="-6"
   inkscape:window-maximized="1"
   inkscape:current-layer="레이어_1" />
<style
   type="text/css"
   id="style1">
	.st0{fill-rule:evenodd;clip-rule:evenodd;fill:#1E1E1E;}
	.st1{fill:#1E1E1E;}
</style>
<g
   id="g6"
   transform="matrix(0.25531915,0,0,0.25531915,5.9999999,30.089362)">
	<g
   id="g2">
		<g
   id="g1">
			<path
   class="st0"
   d="M 21.9,2.1 C 9.8,2.1 0,9.8 0,19.4 0,25.5 4.1,30.9 10.2,34 l -2.1,7.7 c -0.1,0.2 0,0.5 0.2,0.7 0.1,0.1 0.3,0.2 0.4,0.2 0.1,0 0.3,-0.1 0.4,-0.1 l 8.9,-6 c 1.3,0.2 2.6,0.3 4,0.3 12.1,0 21.9,-7.8 21.9,-17.3 0,-9.7 -9.8,-17.4 -22,-17.4 z"
   id="path1" />
		</g>
	</g>
	<path
   class="st1"
   d="M 62.4,33.8 V 45 h -8 V 3.7 H 60 l 1,2.6 c 1.7,-1.7 4.3,-3.5 8.4,-3.5 7.8,0 11.5,5.8 11.5,15.3 0,9.9 -5.7,16.2 -13.9,16.2 -1.6,0 -2.8,-0.1 -4.6,-0.5 z m 0,-23.4 v 17.8 c 0.4,0.1 1.5,0.2 2.6,0.2 5.7,0 7.9,-4 7.9,-10.3 0,-5.5 -1.5,-8.8 -6,-8.8 -1.6,0 -3.2,0.4 -4.5,1.1 z"
   id="path2" />
	<path
   class="st1"
   d="m 98.2,15.3 h 4.5 v -1 c 0,-3.3 -1.9,-4.8 -5.1,-4.8 -2.5,0 -5.6,0.7 -8.2,2 L 87.2,6.2 c 2.8,-2 7.2,-3.3 11.1,-3.3 7.6,0 11.8,4 11.8,11.7 v 18.9 h -5.6 L 103.7,31 c -3.2,2.3 -6.2,3.3 -8.8,3.3 -5.8,0 -9.1,-3.5 -9.1,-9.4 0,-6.2 4.3,-9.6 12.4,-9.6 z m 4.5,10.6 V 20.4 H 99 c -4.1,0 -6.2,1.5 -6.2,4.4 0,2.2 1.1,3.3 3.5,3.3 2.3,0.1 5.1,-1 6.4,-2.2 z"
   id="path3" />
	<path
   class="st1"
   d="m 134.3,30.5 c -2.8,7.4 -6.1,12.8 -11,15.8 l -4.9,-4.5 c 2.8,-2.5 4.9,-4.9 6.6,-8.1 l -10.6,-28.9 7.9,-2.1 6.8,23.4 6.7,-23.5 7.8,2.2 z"
   id="path4" />
	<path
   class="st1"
   d="m 156,24.2 v -3.4 h 41 v 3.4 z M 187.5,1.3 v 2.1 c 0,1.5 -0.5,2.9 -1.4,4.1 -1,1.2 -2.3,2.4 -4,3.5 l 10.3,2.6 -1.3,3.7 L 178,13 c -2.2,0.9 -4.6,1.8 -7.3,2.5 -2.7,0.7 -5.6,1.4 -8.8,1.9 l -1,-3.4 c 3.2,-0.5 6.2,-1.1 8.9,-1.9 2.7,-0.8 5,-1.6 6.9,-2.4 1.9,-0.9 3.5,-1.7 4.5,-2.6 1.1,-0.9 1.6,-1.7 1.6,-2.4 H 163.4 V 1.3 Z m 0.8,35.2 c 0,1.2 -0.3,2.4 -0.8,3.4 -0.5,1 -1.3,1.9 -2.3,2.7 -1,0.8 -2.2,1.3 -3.7,1.8 -1.5,0.4 -3.1,0.6 -5,0.6 -1.9,0 -3.5,-0.2 -5,-0.6 -1.5,-0.4 -2.7,-1 -3.7,-1.8 -1,-0.8 -1.8,-1.7 -2.3,-2.7 -0.5,-1 -0.8,-2.2 -0.8,-3.4 0,-1.2 0.3,-2.3 0.8,-3.3 0.5,-1 1.3,-1.9 2.3,-2.7 1,-0.8 2.2,-1.4 3.7,-1.8 1.5,-0.4 3.1,-0.7 5,-0.7 1.9,0 3.5,0.2 5,0.7 1.5,0.4 2.7,1 3.7,1.8 1,0.8 1.8,1.7 2.3,2.7 0.5,1 0.8,2.2 0.8,3.3 z m -4.2,0 c 0,-0.7 -0.1,-1.3 -0.4,-1.9 -0.3,-0.6 -0.8,-1.1 -1.4,-1.6 -0.6,-0.5 -1.4,-0.8 -2.4,-1.1 -1,-0.3 -2.1,-0.4 -3.4,-0.4 -1.3,0 -2.4,0.1 -3.3,0.4 -0.9,0.3 -1.7,0.7 -2.3,1.1 -0.6,0.5 -1.1,1 -1.4,1.6 -0.3,0.6 -0.4,1.2 -0.4,1.9 0,0.7 0.1,1.3 0.4,1.9 0.3,0.6 0.8,1.2 1.4,1.6 0.6,0.5 1.4,0.8 2.3,1.1 0.9,0.3 2.1,0.4 3.3,0.4 1.3,0 2.5,-0.1 3.4,-0.4 1,-0.3 1.7,-0.7 2.4,-1.1 0.6,-0.5 1.1,-1 1.4,-1.6 0.2,-0.6 0.4,-1.2 0.4,-1.9 z"
   id="path5" />
	<path
   class="st1"
   d="m 209.8,27.4 v -6.9 c -2,0.1 -4.1,0.2 -6.1,0.2 -2,0 -4,0 -6.1,0 v -3.5 c 3.2,0 6.4,0 9.6,-0.1 3.2,-0.1 6.4,-0.2 9.6,-0.5 0.4,-1.8 0.7,-3.7 0.8,-5.7 0.2,-2 0.2,-3.9 0.2,-5.5 H 201 V 1.9 h 21 v 2.4 c 0,1.9 -0.1,3.9 -0.3,6 -0.2,2.1 -0.4,4.1 -0.8,6 2,-0.2 4,-0.4 6.1,-0.7 0.1,0.6 0.1,1.1 0.2,1.7 0.1,0.6 0.1,1.1 0.2,1.7 -2.1,0.3 -4.3,0.6 -6.6,0.8 -2.2,0.2 -4.5,0.4 -6.9,0.5 v 7.2 h -4.1 z m -2.1,15.4 V 30.3 h 4.1 v 9.1 H 235 v 3.4 z M 230,32 v -5 h -8.9 V 23.7 H 230 V 0 h 4.1 v 32 z"
   id="path6" />
</g>
</svg>
